<?xml version="1.0" encoding="UTF-8" standalone="no"?>
<!-- Generator: Adobe Illustrator 16.0.0, SVG Export Plug-In . SVG Version: 6.00 Build 0)  -->

<svg
   xmlns:dc="http://purl.org/dc/elements/1.1/"
   xmlns:cc="http://creativecommons.org/ns#"
   xmlns:rdf="http://www.w3.org/1999/02/22-rdf-syntax-ns#"
   xmlns:svg="http://www.w3.org/2000/svg"
   xmlns="http://www.w3.org/2000/svg"
   xmlns:sodipodi="http://sodipodi.sourceforge.net/DTD/sodipodi-0.dtd"
   xmlns:inkscape="http://www.inkscape.org/namespaces/inkscape"
   version="1.1"
   id="Capa_1"
   x="0px"
   y="0px"
   width="229.994px"
   height="229.994px"
   viewBox="0 0 229.994 229.994"
   style="enable-background:new 0 0 229.994 229.994;"
   xml:space="preserve"
   inkscape:version="0.91 r13725"
   sodipodi:docname="floral.svg"><metadata
     id="metadata4389"><rdf:RDF><cc:Work
         rdf:about=""><dc:format>image/svg+xml</dc:format><dc:type
           rdf:resource="http://purl.org/dc/dcmitype/StillImage" /><dc:title></dc:title></cc:Work></rdf:RDF></metadata><defs
     id="defs4387" /><sodipodi:namedview
     pagecolor="#ffffff"
     bordercolor="#666666"
     borderopacity="1"
     objecttolerance="10"
     gridtolerance="10"
     guidetolerance="10"
     inkscape:pageopacity="0"
     inkscape:pageshadow="2"
     inkscape:window-width="1920"
     inkscape:window-height="1021"
     id="namedview4385"
     showgrid="false"
     inkscape:zoom="1.0261137"
     inkscape:cx="114.997"
     inkscape:cy="114.997"
     inkscape:window-x="0"
     inkscape:window-y="0"
     inkscape:window-maximized="1"
     inkscape:current-layer="Capa_1" /><g
     id="g4351"
     transform="matrix(0,1,-1,0,229.9925,-5.001438e-4)"
     style="stroke:#e3f478;stroke-opacity:0.00392157;fill:#272764;fill-opacity:1"><path
       d="m 224.191,109.209 c -2.302,0 -4.251,1.364 -5.188,3.297 l -23.054,0 c 8.147,-5.063 13.737,-13.643 14.81,-23.626 2.18,-0.843 3.738,-2.92 3.738,-5.368 0,-3.218 -2.594,-5.812 -5.809,-5.812 -3.203,0 -5.797,2.594 -5.797,5.812 0,2.137 1.205,3.921 2.923,4.932 -1.438,13.031 -12.13,23.224 -25.393,23.806 2.022,-1.087 3.958,-2.427 5.688,-4.116 9.475,-9.329 8.391,-25.304 8.343,-25.964 -0.098,-1.209 -1.048,-2.201 -2.266,-2.293 0,0 -0.98,-0.094 -2.618,-0.094 -5.712,0 -16.355,1.047 -23.468,8.05 -0.463,0.441 -0.877,0.922 -1.291,1.422 1.863,-3.057 2.983,-6.61 2.983,-10.431 0,-9.186 -7.459,-16.663 -16.647,-16.663 -7.623,0 -13.834,6.199 -13.834,13.837 0,0.691 0.292,1.334 0.767,1.791 0.694,2.369 2.801,4.125 5.396,4.125 3.142,0 5.699,-2.555 5.699,-5.696 0,-2.914 -2.217,-5.228 -5.029,-5.584 1.619,-2.113 4.141,-3.501 7.002,-3.501 6.431,0 11.667,5.242 11.667,11.663 0,8.406 -6.82,15.214 -15.211,15.214 -10.826,0 -19.644,-8.808 -19.644,-19.634 0,-13.886 11.302,-25.169 25.197,-25.169 1.376,0 2.484,-1.124 2.484,-2.49 0,-1.364 -1.121,-2.488 -2.484,-2.488 -15.418,0 -28.011,11.655 -29.812,26.588 l -16.831,0 C 104.71,55.883 92.108,44.229 76.7,44.229 c -1.376,0 -2.494,1.129 -2.494,2.488 0,1.385 1.117,2.49 2.494,2.49 13.892,0 25.191,11.295 25.191,25.169 0,10.827 -8.817,19.634 -19.647,19.634 -8.394,0 -15.226,-6.826 -15.226,-15.198 0.006,-6.43 5.249,-11.679 11.686,-11.679 2.84,0 5.349,1.382 6.963,3.471 -2.898,0.268 -5.188,2.64 -5.188,5.587 0,3.157 2.545,5.711 5.699,5.711 2.54,0 4.616,-1.689 5.35,-3.982 0.593,-0.451 1.004,-1.148 1.004,-1.946 0,-7.626 -6.205,-13.837 -13.828,-13.837 -9.18,0 -16.657,7.471 -16.669,16.66 0,3.35 0.898,6.467 2.344,9.247 -0.073,-0.08 -0.137,-0.162 -0.216,-0.235 -7.115,-7.002 -17.765,-8.05 -23.483,-8.05 -1.623,0 -2.6,0.088 -2.6,0.088 -1.208,0.122 -2.177,1.096 -2.265,2.299 -0.049,0.667 -1.126,16.635 8.345,25.964 1.726,1.702 3.672,3.042 5.699,4.116 -13.271,-0.587 -23.97,-10.781 -25.41,-23.809 1.72,-0.995 2.932,-2.779 2.932,-4.929 0,-3.206 -2.603,-5.8 -5.806,-5.8 -3.206,0 -5.806,2.594 -5.806,5.8 0,2.466 1.559,4.542 3.735,5.379 1.072,9.996 6.671,18.575 14.809,23.614 l -23.322,0 c -0.935,-1.945 -2.886,-3.3 -5.182,-3.3 C 2.6,109.182 0,111.776 0,114.994 c 0,3.206 2.6,5.8 5.809,5.8 2.296,0 4.241,-1.364 5.182,-3.294 l 23.315,0 c -8.138,5.061 -13.737,13.634 -14.809,23.619 -2.177,0.841 -3.736,2.911 -3.736,5.371 0,3.215 2.6,5.809 5.806,5.809 3.203,0 5.803,-2.594 5.803,-5.809 0,-2.144 -1.208,-3.922 -2.929,-4.932 1.44,-13.031 12.133,-23.228 25.401,-23.803 -2.024,1.074 -3.964,2.417 -5.69,4.109 -9.472,9.329 -8.394,25.295 -8.346,25.965 0.095,1.205 1.048,2.191 2.266,2.289 0,0 0.983,0.109 2.618,0.109 5.718,0 16.361,-1.047 23.471,-8.049 0.085,-0.098 0.155,-0.184 0.244,-0.269 -1.456,2.776 -2.36,5.907 -2.36,9.268 0,9.194 7.472,16.673 16.657,16.673 7.624,0 13.828,-6.211 13.828,-13.848 0,-0.693 -0.292,-1.339 -0.767,-1.79 -0.691,-2.374 -2.798,-4.141 -5.392,-4.141 -3.145,0 -5.699,2.558 -5.699,5.712 0,2.923 2.213,5.213 5.018,5.578 -1.614,2.106 -4.132,3.494 -6.994,3.494 -6.436,0 -11.673,-5.236 -11.673,-11.66 0,-8.396 6.826,-15.205 15.214,-15.205 10.83,0 19.646,8.799 19.646,19.626 0,13.901 -11.298,25.166 -25.191,25.166 -1.376,0 -2.493,1.139 -2.493,2.497 0,1.363 1.117,2.484 2.493,2.484 15.409,0 28.01,-11.631 29.812,-26.573 l 16.824,0 c 1.803,14.937 14.407,26.573 29.812,26.573 1.376,0 2.491,-1.121 2.491,-2.484 0,-1.358 -1.115,-2.497 -2.491,-2.497 -13.889,0 -25.185,-11.289 -25.185,-25.166 0,-10.827 8.817,-19.626 19.638,-19.626 8.396,0 15.229,6.832 15.229,15.205 -0.012,6.424 -5.248,11.66 -11.69,11.66 -2.838,0 -5.341,-1.375 -6.96,-3.458 2.898,-0.269 5.188,-2.643 5.188,-5.596 0,-3.161 -2.545,-5.7 -5.699,-5.7 -2.533,0 -4.615,1.688 -5.34,3.977 -0.604,0.457 -1.011,1.157 -1.011,1.937 0,7.642 6.211,13.841 13.834,13.841 9.183,0 16.647,-7.459 16.672,-16.66 0,-3.812 -1.132,-7.361 -2.983,-10.4 0.408,0.457 0.816,0.932 1.261,1.389 7.118,7.015 17.774,8.062 23.485,8.062 1.632,0 2.606,-0.097 2.606,-0.097 1.206,-0.116 2.18,-1.09 2.266,-2.29 0.048,-0.663 1.12,-16.647 -8.349,-25.977 -1.724,-1.687 -3.678,-3.029 -5.693,-4.122 13.262,0.6 23.967,10.777 25.397,23.814 -1.711,1.005 -2.923,2.783 -2.923,4.933 0,3.215 2.595,5.809 5.797,5.809 3.209,0 5.815,-2.594 5.815,-5.809 0,-2.466 -1.559,-4.549 -3.745,-5.371 -1.071,-10.004 -6.667,-18.577 -14.809,-23.632 l 23.054,0 c 0.932,1.949 2.887,3.318 5.188,3.318 3.203,0 5.81,-2.605 5.81,-5.812 0.001,-3.211 -2.606,-5.802 -5.802,-5.802 z M 169.595,91.386 c 6.04,-5.943 15.893,-6.616 19.911,-6.622 -0.079,4.335 -0.962,13.956 -6.904,19.829 -6.028,5.937 -15.881,6.616 -19.899,6.622 0.06,-4.332 0.924,-13.941 6.892,-19.829 z m -6.819,0.624 c -4.78,7.562 -5.128,16.867 -5.066,20.377 -0.22,0.006 -0.402,0.062 -0.609,0.125 l -5.395,0 0,-13.898 c 4.396,-0.916 8.219,-3.331 11.07,-6.604 z m -84.655,6.604 0,13.898 -4.981,0 c -0.195,-0.063 -0.393,-0.119 -0.606,-0.125 0.058,-3.285 -0.25,-11.709 -4.253,-18.992 2.694,2.564 6.062,4.434 9.84,5.219 z M 40.733,84.764 c 4.034,0.012 13.88,0.667 19.912,6.622 5.94,5.849 6.826,15.484 6.902,19.823 -4.034,-0.013 -13.88,-0.673 -19.912,-6.622 C 41.696,98.733 40.81,89.1 40.733,84.764 Z m 19.912,53.859 c -6.031,5.943 -15.89,6.613 -19.912,6.619 0.076,-4.33 0.962,-13.957 6.902,-19.832 6.031,-5.943 15.883,-6.613 19.912,-6.619 -0.07,4.341 -0.935,13.95 -6.902,19.832 z m 7.63,-1.998 c 4.01,-7.282 4.317,-15.71 4.265,-19.001 0.213,-0.006 0.405,-0.062 0.606,-0.125 l 4.981,0 0,13.901 c -3.784,0.78 -7.164,2.656 -9.852,5.225 z m 54.823,17.585 -16.383,0 C 105.987,141.594 95.798,131.528 83.111,131.071 l 0,-32.134 c 12.687,-0.459 22.877,-10.525 23.604,-23.139 l 16.383,0 c 0.731,12.614 10.924,22.679 23.614,23.139 l 0,32.135 c -12.69,0.457 -22.882,10.522 -23.614,23.138 z m 28.608,-22.809 0,-13.901 5.395,0 c 0.195,0.063 0.384,0.119 0.609,0.125 -0.062,3.498 0.292,12.777 5.054,20.341 -2.863,-3.265 -6.675,-5.67 -11.058,-6.565 z m 37.8,13.847 c -4.03,-0.012 -13.877,-0.67 -19.911,-6.625 -5.931,-5.846 -6.819,-15.473 -6.893,-19.814 4.03,0.015 13.883,0.669 19.899,6.613 5.943,5.851 6.833,15.49 6.905,19.826 z"
       id="path4353"
       inkscape:connector-curvature="0"
       style="stroke:#e3f478;stroke-opacity:0.00392157;fill:#272764;fill-opacity:1" /></g><g
     id="g4355" /><g
     id="g4357" /><g
     id="g4359" /><g
     id="g4361" /><g
     id="g4363" /><g
     id="g4365" /><g
     id="g4367" /><g
     id="g4369" /><g
     id="g4371" /><g
     id="g4373" /><g
     id="g4375" /><g
     id="g4377" /><g
     id="g4379" /><g
     id="g4381" /><g
     id="g4383" /></svg>